<mxfile host="app.diagrams.net" agent="Mozilla/5.0 (Windows NT 10.0; Win64; x64) AppleWebKit/537.36 (KHTML, like Gecko) Chrome/133.0.0.0 Safari/537.36" version="26.0.16">
  <diagram name="Page-1" id="rVI1tfhn6U2kd9-MvAMI">
    <mxGraphModel dx="3780" dy="2287" grid="1" gridSize="10" guides="1" tooltips="1" connect="1" arrows="1" fold="1" page="1" pageScale="1" pageWidth="1390" pageHeight="980" math="0" shadow="0">
      <root>
        <mxCell id="0" />
        <mxCell id="1" parent="0" />
        <mxCell id="-4JqRAIje_STTefDtWn_-210" value="SmartHouseMediator" style="swimlane;fontStyle=1;align=center;verticalAlign=top;childLayout=stackLayout;horizontal=1;startSize=26;horizontalStack=0;resizeParent=1;resizeParentMax=0;resizeLast=0;collapsible=1;marginBottom=0;whiteSpace=wrap;html=1;" vertex="1" parent="1">
          <mxGeometry x="-20" y="20" width="240" height="140" as="geometry" />
        </mxCell>
        <mxCell id="-4JqRAIje_STTefDtWn_-211" value="*****************" style="text;strokeColor=none;fillColor=none;align=left;verticalAlign=top;spacingLeft=4;spacingRight=4;overflow=hidden;rotatable=0;points=[[0,0.5],[1,0.5]];portConstraint=eastwest;whiteSpace=wrap;html=1;" vertex="1" parent="-4JqRAIje_STTefDtWn_-210">
          <mxGeometry y="26" width="240" height="26" as="geometry" />
        </mxCell>
        <mxCell id="-4JqRAIje_STTefDtWn_-212" value="" style="line;strokeWidth=1;fillColor=none;align=left;verticalAlign=middle;spacingTop=-1;spacingLeft=3;spacingRight=3;rotatable=0;labelPosition=right;points=[];portConstraint=eastwest;strokeColor=inherit;" vertex="1" parent="-4JqRAIje_STTefDtWn_-210">
          <mxGeometry y="52" width="240" height="8" as="geometry" />
        </mxCell>
        <mxCell id="-4JqRAIje_STTefDtWn_-213" value="&lt;b&gt;+ ShowMenu(u: User): void&lt;/b&gt;&lt;div&gt;&lt;i&gt;+ CreateWidget(): void&lt;/i&gt;&lt;/div&gt;&lt;div&gt;&lt;i&gt;+ WidgetChanged(w: Widget): void&lt;/i&gt;&lt;/div&gt;" style="text;strokeColor=none;fillColor=none;align=left;verticalAlign=top;spacingLeft=4;spacingRight=4;overflow=hidden;rotatable=0;points=[[0,0.5],[1,0.5]];portConstraint=eastwest;whiteSpace=wrap;html=1;" vertex="1" parent="-4JqRAIje_STTefDtWn_-210">
          <mxGeometry y="60" width="240" height="80" as="geometry" />
        </mxCell>
        <mxCell id="-4JqRAIje_STTefDtWn_-214" value="IrrigationMediator" style="swimlane;fontStyle=1;align=center;verticalAlign=top;childLayout=stackLayout;horizontal=1;startSize=26;horizontalStack=0;resizeParent=1;resizeParentMax=0;resizeLast=0;collapsible=1;marginBottom=0;whiteSpace=wrap;html=1;" vertex="1" parent="1">
          <mxGeometry x="-35" y="240" width="190" height="140" as="geometry" />
        </mxCell>
        <mxCell id="-4JqRAIje_STTefDtWn_-215" value="&lt;div&gt;***********&lt;/div&gt;" style="text;strokeColor=none;fillColor=none;align=left;verticalAlign=top;spacingLeft=4;spacingRight=4;overflow=hidden;rotatable=0;points=[[0,0.5],[1,0.5]];portConstraint=eastwest;whiteSpace=wrap;html=1;" vertex="1" parent="-4JqRAIje_STTefDtWn_-214">
          <mxGeometry y="26" width="190" height="24" as="geometry" />
        </mxCell>
        <mxCell id="-4JqRAIje_STTefDtWn_-216" value="" style="line;strokeWidth=1;fillColor=none;align=left;verticalAlign=middle;spacingTop=-1;spacingLeft=3;spacingRight=3;rotatable=0;labelPosition=right;points=[];portConstraint=eastwest;strokeColor=inherit;" vertex="1" parent="-4JqRAIje_STTefDtWn_-214">
          <mxGeometry y="50" width="190" height="8" as="geometry" />
        </mxCell>
        <mxCell id="-4JqRAIje_STTefDtWn_-217" value="+Splash(u: User, sp: Splasher, t: Timer): void&lt;div&gt;&lt;div&gt;+ CreateWidget(): void&lt;/div&gt;&lt;div&gt;+ WidgetChanged(w: Widget): void&lt;/div&gt;&lt;/div&gt;" style="text;strokeColor=none;fillColor=none;align=left;verticalAlign=top;spacingLeft=4;spacingRight=4;overflow=hidden;rotatable=0;points=[[0,0.5],[1,0.5]];portConstraint=eastwest;whiteSpace=wrap;html=1;" vertex="1" parent="-4JqRAIje_STTefDtWn_-214">
          <mxGeometry y="58" width="190" height="82" as="geometry" />
        </mxCell>
        <mxCell id="-4JqRAIje_STTefDtWn_-218" style="edgeStyle=orthogonalEdgeStyle;rounded=0;orthogonalLoop=1;jettySize=auto;html=1;entryX=0.177;entryY=-0.037;entryDx=0;entryDy=0;entryPerimeter=0;exitX=0.5;exitY=0.5;exitDx=0;exitDy=0;exitPerimeter=0;jumpStyle=arc;" edge="1" parent="1" source="-4JqRAIje_STTefDtWn_-219" target="-4JqRAIje_STTefDtWn_-220">
          <mxGeometry relative="1" as="geometry">
            <Array as="points">
              <mxPoint x="-165" y="90" />
              <mxPoint x="-165" y="200" />
              <mxPoint x="259" y="200" />
            </Array>
          </mxGeometry>
        </mxCell>
        <mxCell id="-4JqRAIje_STTefDtWn_-219" value="Timer" style="shape=umlActor;verticalLabelPosition=bottom;verticalAlign=top;html=1;" vertex="1" parent="1">
          <mxGeometry x="-350" y="60" width="30" height="60" as="geometry" />
        </mxCell>
        <mxCell id="-4JqRAIje_STTefDtWn_-220" value="Splasher" style="swimlane;fontStyle=1;align=center;verticalAlign=top;childLayout=stackLayout;horizontal=1;startSize=26;horizontalStack=0;resizeParent=1;resizeParentMax=0;resizeLast=0;collapsible=1;marginBottom=0;whiteSpace=wrap;html=1;" vertex="1" parent="1">
          <mxGeometry x="220" y="240" width="220" height="110" as="geometry" />
        </mxCell>
        <mxCell id="-4JqRAIje_STTefDtWn_-221" value="- atomateSplash: bool" style="text;strokeColor=none;fillColor=none;align=left;verticalAlign=top;spacingLeft=4;spacingRight=4;overflow=hidden;rotatable=0;points=[[0,0.5],[1,0.5]];portConstraint=eastwest;whiteSpace=wrap;html=1;" vertex="1" parent="-4JqRAIje_STTefDtWn_-220">
          <mxGeometry y="26" width="220" height="26" as="geometry" />
        </mxCell>
        <mxCell id="-4JqRAIje_STTefDtWn_-222" value="" style="line;strokeWidth=1;fillColor=none;align=left;verticalAlign=middle;spacingTop=-1;spacingLeft=3;spacingRight=3;rotatable=0;labelPosition=right;points=[];portConstraint=eastwest;strokeColor=inherit;" vertex="1" parent="-4JqRAIje_STTefDtWn_-220">
          <mxGeometry y="52" width="220" height="8" as="geometry" />
        </mxCell>
        <mxCell id="-4JqRAIje_STTefDtWn_-223" value="&lt;div&gt;+ AtomaticSplash(wetness: flaot): void&lt;/div&gt;+ Splash(t: Timer): void" style="text;strokeColor=none;fillColor=none;align=left;verticalAlign=top;spacingLeft=4;spacingRight=4;overflow=hidden;rotatable=0;points=[[0,0.5],[1,0.5]];portConstraint=eastwest;whiteSpace=wrap;html=1;" vertex="1" parent="-4JqRAIje_STTefDtWn_-220">
          <mxGeometry y="60" width="220" height="50" as="geometry" />
        </mxCell>
        <mxCell id="-4JqRAIje_STTefDtWn_-224" value="Widget" style="swimlane;fontStyle=1;align=center;verticalAlign=top;childLayout=stackLayout;horizontal=1;startSize=26;horizontalStack=0;resizeParent=1;resizeParentMax=0;resizeLast=0;collapsible=1;marginBottom=0;whiteSpace=wrap;html=1;" vertex="1" parent="1">
          <mxGeometry x="330" y="20" width="160" height="86" as="geometry" />
        </mxCell>
        <mxCell id="-4JqRAIje_STTefDtWn_-225" value="**********" style="text;strokeColor=none;fillColor=none;align=left;verticalAlign=top;spacingLeft=4;spacingRight=4;overflow=hidden;rotatable=0;points=[[0,0.5],[1,0.5]];portConstraint=eastwest;whiteSpace=wrap;html=1;" vertex="1" parent="-4JqRAIje_STTefDtWn_-224">
          <mxGeometry y="26" width="160" height="26" as="geometry" />
        </mxCell>
        <mxCell id="-4JqRAIje_STTefDtWn_-226" value="" style="line;strokeWidth=1;fillColor=none;align=left;verticalAlign=middle;spacingTop=-1;spacingLeft=3;spacingRight=3;rotatable=0;labelPosition=right;points=[];portConstraint=eastwest;strokeColor=inherit;" vertex="1" parent="-4JqRAIje_STTefDtWn_-224">
          <mxGeometry y="52" width="160" height="8" as="geometry" />
        </mxCell>
        <mxCell id="-4JqRAIje_STTefDtWn_-227" value="+Changed(): void" style="text;strokeColor=none;fillColor=none;align=left;verticalAlign=top;spacingLeft=4;spacingRight=4;overflow=hidden;rotatable=0;points=[[0,0.5],[1,0.5]];portConstraint=eastwest;whiteSpace=wrap;html=1;" vertex="1" parent="-4JqRAIje_STTefDtWn_-224">
          <mxGeometry y="60" width="160" height="26" as="geometry" />
        </mxCell>
        <mxCell id="-4JqRAIje_STTefDtWn_-228" style="edgeStyle=orthogonalEdgeStyle;rounded=0;orthogonalLoop=1;jettySize=auto;html=1;entryX=1;entryY=0.5;entryDx=0;entryDy=0;" edge="1" parent="1" source="-4JqRAIje_STTefDtWn_-225" target="-4JqRAIje_STTefDtWn_-211">
          <mxGeometry relative="1" as="geometry" />
        </mxCell>
        <mxCell id="-4JqRAIje_STTefDtWn_-229" value="1" style="edgeLabel;html=1;align=center;verticalAlign=middle;resizable=0;points=[];" vertex="1" connectable="0" parent="-4JqRAIje_STTefDtWn_-228">
          <mxGeometry x="0.6213" y="-2" relative="1" as="geometry">
            <mxPoint y="-11" as="offset" />
          </mxGeometry>
        </mxCell>
        <mxCell id="-4JqRAIje_STTefDtWn_-230" value="smartHouse" style="edgeLabel;html=1;align=center;verticalAlign=middle;resizable=0;points=[];" vertex="1" connectable="0" parent="-4JqRAIje_STTefDtWn_-228">
          <mxGeometry x="0.6213" relative="1" as="geometry">
            <mxPoint x="19" y="11" as="offset" />
          </mxGeometry>
        </mxCell>
        <mxCell id="-4JqRAIje_STTefDtWn_-231" style="edgeStyle=orthogonalEdgeStyle;rounded=0;orthogonalLoop=1;jettySize=auto;html=1;entryX=0.333;entryY=1.01;entryDx=0;entryDy=0;entryPerimeter=0;endArrow=block;endFill=0;" edge="1" parent="1" source="-4JqRAIje_STTefDtWn_-214" target="-4JqRAIje_STTefDtWn_-213">
          <mxGeometry relative="1" as="geometry" />
        </mxCell>
        <mxCell id="-4JqRAIje_STTefDtWn_-232" style="edgeStyle=orthogonalEdgeStyle;rounded=0;orthogonalLoop=1;jettySize=auto;html=1;entryX=0.33;entryY=1.029;entryDx=0;entryDy=0;entryPerimeter=0;endArrow=block;endFill=0;jumpStyle=arc;jumpSize=13;" edge="1" parent="1" source="-4JqRAIje_STTefDtWn_-220" target="-4JqRAIje_STTefDtWn_-227">
          <mxGeometry relative="1" as="geometry" />
        </mxCell>
        <mxCell id="-4JqRAIje_STTefDtWn_-233" style="edgeStyle=orthogonalEdgeStyle;rounded=0;orthogonalLoop=1;jettySize=auto;html=1;entryX=0;entryY=0.5;entryDx=0;entryDy=0;" edge="1" parent="1" source="-4JqRAIje_STTefDtWn_-215" target="-4JqRAIje_STTefDtWn_-221">
          <mxGeometry relative="1" as="geometry" />
        </mxCell>
        <mxCell id="-4JqRAIje_STTefDtWn_-234" value="1" style="edgeLabel;html=1;align=center;verticalAlign=middle;resizable=0;points=[];" vertex="1" connectable="0" parent="-4JqRAIje_STTefDtWn_-233">
          <mxGeometry x="0.5724" y="3" relative="1" as="geometry">
            <mxPoint y="-10" as="offset" />
          </mxGeometry>
        </mxCell>
        <mxCell id="-4JqRAIje_STTefDtWn_-235" value="mySplasher" style="edgeLabel;html=1;align=center;verticalAlign=middle;resizable=0;points=[];" vertex="1" connectable="0" parent="-4JqRAIje_STTefDtWn_-233">
          <mxGeometry x="0.4862" relative="1" as="geometry">
            <mxPoint x="-9" y="11" as="offset" />
          </mxGeometry>
        </mxCell>
        <mxCell id="-4JqRAIje_STTefDtWn_-236" value="Room" style="swimlane;fontStyle=1;align=center;verticalAlign=top;childLayout=stackLayout;horizontal=1;startSize=26;horizontalStack=0;resizeParent=1;resizeParentMax=0;resizeLast=0;collapsible=1;marginBottom=0;whiteSpace=wrap;html=1;" vertex="1" parent="1">
          <mxGeometry x="540" y="-20" width="160" height="112" as="geometry" />
        </mxCell>
        <mxCell id="-4JqRAIje_STTefDtWn_-237" value="- tempreture: float&lt;div&gt;- presentPeople: int&lt;/div&gt;" style="text;strokeColor=none;fillColor=none;align=left;verticalAlign=top;spacingLeft=4;spacingRight=4;overflow=hidden;rotatable=0;points=[[0,0.5],[1,0.5]];portConstraint=eastwest;whiteSpace=wrap;html=1;" vertex="1" parent="-4JqRAIje_STTefDtWn_-236">
          <mxGeometry y="26" width="160" height="52" as="geometry" />
        </mxCell>
        <mxCell id="-4JqRAIje_STTefDtWn_-238" value="" style="line;strokeWidth=1;fillColor=none;align=left;verticalAlign=middle;spacingTop=-1;spacingLeft=3;spacingRight=3;rotatable=0;labelPosition=right;points=[];portConstraint=eastwest;strokeColor=inherit;" vertex="1" parent="-4JqRAIje_STTefDtWn_-236">
          <mxGeometry y="78" width="160" height="8" as="geometry" />
        </mxCell>
        <mxCell id="-4JqRAIje_STTefDtWn_-239" value="************" style="text;strokeColor=none;fillColor=none;align=left;verticalAlign=top;spacingLeft=4;spacingRight=4;overflow=hidden;rotatable=0;points=[[0,0.5],[1,0.5]];portConstraint=eastwest;whiteSpace=wrap;html=1;" vertex="1" parent="-4JqRAIje_STTefDtWn_-236">
          <mxGeometry y="86" width="160" height="26" as="geometry" />
        </mxCell>
        <mxCell id="-4JqRAIje_STTefDtWn_-240" value="GreenHouse" style="swimlane;fontStyle=1;align=center;verticalAlign=top;childLayout=stackLayout;horizontal=1;startSize=26;horizontalStack=0;resizeParent=1;resizeParentMax=0;resizeLast=0;collapsible=1;marginBottom=0;whiteSpace=wrap;html=1;" vertex="1" parent="1">
          <mxGeometry x="520" y="230" width="160" height="86" as="geometry" />
        </mxCell>
        <mxCell id="-4JqRAIje_STTefDtWn_-241" value="- wetness: float&lt;div&gt;&lt;br&gt;&lt;/div&gt;" style="text;strokeColor=none;fillColor=none;align=left;verticalAlign=top;spacingLeft=4;spacingRight=4;overflow=hidden;rotatable=0;points=[[0,0.5],[1,0.5]];portConstraint=eastwest;whiteSpace=wrap;html=1;" vertex="1" parent="-4JqRAIje_STTefDtWn_-240">
          <mxGeometry y="26" width="160" height="26" as="geometry" />
        </mxCell>
        <mxCell id="-4JqRAIje_STTefDtWn_-242" value="" style="line;strokeWidth=1;fillColor=none;align=left;verticalAlign=middle;spacingTop=-1;spacingLeft=3;spacingRight=3;rotatable=0;labelPosition=right;points=[];portConstraint=eastwest;strokeColor=inherit;" vertex="1" parent="-4JqRAIje_STTefDtWn_-240">
          <mxGeometry y="52" width="160" height="8" as="geometry" />
        </mxCell>
        <mxCell id="-4JqRAIje_STTefDtWn_-243" value="***********" style="text;strokeColor=none;fillColor=none;align=left;verticalAlign=top;spacingLeft=4;spacingRight=4;overflow=hidden;rotatable=0;points=[[0,0.5],[1,0.5]];portConstraint=eastwest;whiteSpace=wrap;html=1;" vertex="1" parent="-4JqRAIje_STTefDtWn_-240">
          <mxGeometry y="60" width="160" height="26" as="geometry" />
        </mxCell>
        <mxCell id="-4JqRAIje_STTefDtWn_-244" style="edgeStyle=orthogonalEdgeStyle;rounded=0;orthogonalLoop=1;jettySize=auto;html=1;entryX=0.377;entryY=1.006;entryDx=0;entryDy=0;entryPerimeter=0;endArrow=block;endFill=0;" edge="1" parent="1" source="-4JqRAIje_STTefDtWn_-240" target="-4JqRAIje_STTefDtWn_-239">
          <mxGeometry relative="1" as="geometry" />
        </mxCell>
        <mxCell id="-4JqRAIje_STTefDtWn_-245" value="wetnessSensor" style="shape=umlActor;verticalLabelPosition=bottom;verticalAlign=top;html=1;" vertex="1" parent="1">
          <mxGeometry x="760" y="130" width="30" height="60" as="geometry" />
        </mxCell>
        <mxCell id="-4JqRAIje_STTefDtWn_-246" style="edgeStyle=orthogonalEdgeStyle;rounded=0;orthogonalLoop=1;jettySize=auto;html=1;exitX=0.5;exitY=0.5;exitDx=0;exitDy=0;exitPerimeter=0;entryX=1.006;entryY=0.157;entryDx=0;entryDy=0;entryPerimeter=0;" edge="1" parent="1" source="-4JqRAIje_STTefDtWn_-245" target="-4JqRAIje_STTefDtWn_-240">
          <mxGeometry relative="1" as="geometry" />
        </mxCell>
        <mxCell id="-4JqRAIje_STTefDtWn_-247" style="edgeStyle=orthogonalEdgeStyle;rounded=0;orthogonalLoop=1;jettySize=auto;html=1;entryX=0.947;entryY=0.014;entryDx=0;entryDy=0;entryPerimeter=0;jumpStyle=arc;jumpSize=13;" edge="1" parent="1" source="-4JqRAIje_STTefDtWn_-245" target="-4JqRAIje_STTefDtWn_-220">
          <mxGeometry relative="1" as="geometry" />
        </mxCell>
        <mxCell id="-4JqRAIje_STTefDtWn_-248" style="edgeStyle=orthogonalEdgeStyle;rounded=0;orthogonalLoop=1;jettySize=auto;html=1;entryX=0;entryY=0.5;entryDx=0;entryDy=0;endArrow=none;startFill=0;exitX=0.5;exitY=0.5;exitDx=0;exitDy=0;exitPerimeter=0;jumpStyle=arc;" edge="1" parent="1" source="-4JqRAIje_STTefDtWn_-251" target="-4JqRAIje_STTefDtWn_-213">
          <mxGeometry relative="1" as="geometry">
            <Array as="points">
              <mxPoint x="-90" y="250" />
              <mxPoint x="-90" y="120" />
            </Array>
          </mxGeometry>
        </mxCell>
        <mxCell id="-4JqRAIje_STTefDtWn_-249" style="edgeStyle=orthogonalEdgeStyle;rounded=0;orthogonalLoop=1;jettySize=auto;html=1;exitX=0.5;exitY=0.5;exitDx=0;exitDy=0;exitPerimeter=0;endArrow=none;startFill=0;jumpStyle=arc;" edge="1" parent="1" source="-4JqRAIje_STTefDtWn_-251" target="-4JqRAIje_STTefDtWn_-276">
          <mxGeometry relative="1" as="geometry">
            <Array as="points">
              <mxPoint x="-425" y="260" />
              <mxPoint x="-160" y="260" />
              <mxPoint x="-160" y="809" />
            </Array>
          </mxGeometry>
        </mxCell>
        <mxCell id="-4JqRAIje_STTefDtWn_-250" style="edgeStyle=orthogonalEdgeStyle;rounded=0;orthogonalLoop=1;jettySize=auto;html=1;exitX=0.5;exitY=0.5;exitDx=0;exitDy=0;exitPerimeter=0;entryX=0;entryY=0.5;entryDx=0;entryDy=0;endArrow=none;startFill=0;jumpStyle=arc;" edge="1" parent="1" source="-4JqRAIje_STTefDtWn_-251" target="-4JqRAIje_STTefDtWn_-294">
          <mxGeometry relative="1" as="geometry">
            <Array as="points">
              <mxPoint x="-425" y="240" />
              <mxPoint x="-150" y="240" />
              <mxPoint x="-150" y="1339" />
            </Array>
          </mxGeometry>
        </mxCell>
        <mxCell id="-4JqRAIje_STTefDtWn_-251" value="User" style="shape=umlActor;verticalLabelPosition=bottom;verticalAlign=top;html=1;" vertex="1" parent="1">
          <mxGeometry x="-440" y="220" width="30" height="60" as="geometry" />
        </mxCell>
        <mxCell id="-4JqRAIje_STTefDtWn_-252" style="edgeStyle=orthogonalEdgeStyle;rounded=0;orthogonalLoop=1;jettySize=auto;html=1;entryX=-0.005;entryY=0.671;entryDx=0;entryDy=0;entryPerimeter=0;endArrow=none;startFill=0;jumpStyle=arc;" edge="1" parent="1">
          <mxGeometry relative="1" as="geometry">
            <Array as="points">
              <mxPoint x="-165" y="278.94" />
              <mxPoint x="-165" y="310.94" />
            </Array>
            <mxPoint x="-410" y="279" as="sourcePoint" />
            <mxPoint x="-40.94999999999959" y="311.0439999999998" as="targetPoint" />
          </mxGeometry>
        </mxCell>
        <mxCell id="-4JqRAIje_STTefDtWn_-253" value="SmartThermostat" style="swimlane;fontStyle=1;align=center;verticalAlign=top;childLayout=stackLayout;horizontal=1;startSize=26;horizontalStack=0;resizeParent=1;resizeParentMax=0;resizeLast=0;collapsible=1;marginBottom=0;whiteSpace=wrap;html=1;" vertex="1" parent="1">
          <mxGeometry x="-40" y="490" width="210" height="240" as="geometry" />
        </mxCell>
        <mxCell id="-4JqRAIje_STTefDtWn_-254" value="&lt;div&gt;****************&lt;/div&gt;" style="text;strokeColor=none;fillColor=none;align=left;verticalAlign=top;spacingLeft=4;spacingRight=4;overflow=hidden;rotatable=0;points=[[0,0.5],[1,0.5]];portConstraint=eastwest;whiteSpace=wrap;html=1;" vertex="1" parent="-4JqRAIje_STTefDtWn_-253">
          <mxGeometry y="26" width="210" height="34" as="geometry" />
        </mxCell>
        <mxCell id="-4JqRAIje_STTefDtWn_-255" value="" style="line;strokeWidth=1;fillColor=none;align=left;verticalAlign=middle;spacingTop=-1;spacingLeft=3;spacingRight=3;rotatable=0;labelPosition=right;points=[];portConstraint=eastwest;strokeColor=inherit;" vertex="1" parent="-4JqRAIje_STTefDtWn_-253">
          <mxGeometry y="60" width="210" height="8" as="geometry" />
        </mxCell>
        <mxCell id="-4JqRAIje_STTefDtWn_-256" value="&lt;div&gt;+ ShowChillers(u: User): void&lt;/div&gt;&lt;div&gt;+ ChooseChiller(u: User, ch: Chiller)&lt;/div&gt;&lt;div&gt;+ SetChillerState(u: User&lt;span style=&quot;background-color: transparent; color: light-dark(rgb(0, 0, 0), rgb(255, 255, 255));&quot;&gt;, ch: Chiller&lt;/span&gt;&lt;span style=&quot;background-color: transparent; color: light-dark(rgb(0, 0, 0), rgb(255, 255, 255));&quot;&gt;, ch: ChillerState)&lt;/span&gt;&lt;/div&gt;&lt;div&gt;+ SetTempreture(u: User&lt;span style=&quot;background-color: transparent; color: light-dark(rgb(0, 0, 0), rgb(255, 255, 255));&quot;&gt;, ch: Chiller&lt;/span&gt;&lt;span style=&quot;background-color: transparent; color: light-dark(rgb(0, 0, 0), rgb(255, 255, 255));&quot;&gt;, tempreture: float): void&lt;/span&gt;&lt;/div&gt;&lt;div&gt;+ SetFanDegree(u: User&lt;span style=&quot;background-color: transparent; color: light-dark(rgb(0, 0, 0), rgb(255, 255, 255));&quot;&gt;, ch: Chiller&lt;/span&gt;&lt;span style=&quot;background-color: transparent; color: light-dark(rgb(0, 0, 0), rgb(255, 255, 255));&quot;&gt;, fanDegree: int)&lt;/span&gt;&lt;/div&gt;&lt;div&gt;+ CreateWidget(): void&lt;/div&gt;&lt;div&gt;+ WidgetChanged(w: Widget): void&lt;/div&gt;" style="text;strokeColor=none;fillColor=none;align=left;verticalAlign=top;spacingLeft=4;spacingRight=4;overflow=hidden;rotatable=0;points=[[0,0.5],[1,0.5]];portConstraint=eastwest;whiteSpace=wrap;html=1;" vertex="1" parent="-4JqRAIje_STTefDtWn_-253">
          <mxGeometry y="68" width="210" height="172" as="geometry" />
        </mxCell>
        <mxCell id="-4JqRAIje_STTefDtWn_-257" style="edgeStyle=orthogonalEdgeStyle;rounded=0;orthogonalLoop=1;jettySize=auto;html=1;entryX=0.012;entryY=0.64;entryDx=0;entryDy=0;entryPerimeter=0;endArrow=block;endFill=0;exitX=-0.006;exitY=0.17;exitDx=0;exitDy=0;exitPerimeter=0;jumpStyle=arc;" edge="1" parent="1" source="-4JqRAIje_STTefDtWn_-253" target="-4JqRAIje_STTefDtWn_-213">
          <mxGeometry relative="1" as="geometry">
            <Array as="points">
              <mxPoint x="-70" y="531" />
              <mxPoint x="-70" y="131" />
            </Array>
          </mxGeometry>
        </mxCell>
        <mxCell id="-4JqRAIje_STTefDtWn_-258" style="edgeStyle=orthogonalEdgeStyle;rounded=0;orthogonalLoop=1;jettySize=auto;html=1;exitX=0;exitY=0.18;exitDx=0;exitDy=0;exitPerimeter=0;entryX=0.5;entryY=0.5;entryDx=0;entryDy=0;entryPerimeter=0;endArrow=none;startFill=0;jumpStyle=arc;" edge="1" parent="1" target="-4JqRAIje_STTefDtWn_-251">
          <mxGeometry relative="1" as="geometry">
            <Array as="points">
              <mxPoint x="-140" y="1087" />
              <mxPoint x="-140" y="210" />
              <mxPoint x="-470" y="210" />
              <mxPoint x="-470" y="250" />
            </Array>
            <mxPoint x="-30" y="1086.7999999999997" as="sourcePoint" />
            <mxPoint x="-425" y="270" as="targetPoint" />
          </mxGeometry>
        </mxCell>
        <mxCell id="-4JqRAIje_STTefDtWn_-259" value="chiller" style="swimlane;fontStyle=1;align=center;verticalAlign=top;childLayout=stackLayout;horizontal=1;startSize=26;horizontalStack=0;resizeParent=1;resizeParentMax=0;resizeLast=0;collapsible=1;marginBottom=0;whiteSpace=wrap;html=1;" vertex="1" parent="1">
          <mxGeometry x="210" y="480" width="170" height="170" as="geometry" />
        </mxCell>
        <mxCell id="-4JqRAIje_STTefDtWn_-260" value="&lt;div&gt;- fanDegree: int&lt;/div&gt;&lt;div&gt;- tempreture: float&lt;/div&gt;" style="text;strokeColor=none;fillColor=none;align=left;verticalAlign=top;spacingLeft=4;spacingRight=4;overflow=hidden;rotatable=0;points=[[0,0.5],[1,0.5]];portConstraint=eastwest;whiteSpace=wrap;html=1;" vertex="1" parent="-4JqRAIje_STTefDtWn_-259">
          <mxGeometry y="26" width="170" height="34" as="geometry" />
        </mxCell>
        <mxCell id="-4JqRAIje_STTefDtWn_-261" value="" style="line;strokeWidth=1;fillColor=none;align=left;verticalAlign=middle;spacingTop=-1;spacingLeft=3;spacingRight=3;rotatable=0;labelPosition=right;points=[];portConstraint=eastwest;strokeColor=inherit;" vertex="1" parent="-4JqRAIje_STTefDtWn_-259">
          <mxGeometry y="60" width="170" height="8" as="geometry" />
        </mxCell>
        <mxCell id="-4JqRAIje_STTefDtWn_-262" value="+ setChillerState(ch: ChillerState): void&lt;div&gt;&lt;div&gt;+ setTempreture(tempreture: float): void&lt;/div&gt;&lt;div&gt;+ setFanDegree(fanDegree: int)&lt;/div&gt;&lt;/div&gt;" style="text;strokeColor=none;fillColor=none;align=left;verticalAlign=top;spacingLeft=4;spacingRight=4;overflow=hidden;rotatable=0;points=[[0,0.5],[1,0.5]];portConstraint=eastwest;whiteSpace=wrap;html=1;" vertex="1" parent="-4JqRAIje_STTefDtWn_-259">
          <mxGeometry y="68" width="170" height="102" as="geometry" />
        </mxCell>
        <mxCell id="-4JqRAIje_STTefDtWn_-263" value="TempretureSensor" style="shape=umlActor;verticalLabelPosition=bottom;verticalAlign=top;html=1;" vertex="1" parent="1">
          <mxGeometry x="780" y="330" width="30" height="60" as="geometry" />
        </mxCell>
        <mxCell id="-4JqRAIje_STTefDtWn_-264" style="edgeStyle=orthogonalEdgeStyle;rounded=0;orthogonalLoop=1;jettySize=auto;html=1;entryX=0.711;entryY=-0.024;entryDx=0;entryDy=0;entryPerimeter=0;" edge="1" parent="1" source="-4JqRAIje_STTefDtWn_-245" target="-4JqRAIje_STTefDtWn_-214">
          <mxGeometry relative="1" as="geometry">
            <Array as="points">
              <mxPoint x="100" y="190" />
            </Array>
            <mxPoint x="100" y="220" as="targetPoint" />
          </mxGeometry>
        </mxCell>
        <mxCell id="-4JqRAIje_STTefDtWn_-265" style="edgeStyle=orthogonalEdgeStyle;rounded=0;orthogonalLoop=1;jettySize=auto;html=1;exitX=0.5;exitY=0.5;exitDx=0;exitDy=0;exitPerimeter=0;entryX=0.598;entryY=-0.008;entryDx=0;entryDy=0;entryPerimeter=0;" edge="1" parent="1" source="-4JqRAIje_STTefDtWn_-263" target="-4JqRAIje_STTefDtWn_-259">
          <mxGeometry relative="1" as="geometry" />
        </mxCell>
        <mxCell id="-4JqRAIje_STTefDtWn_-266" style="edgeStyle=orthogonalEdgeStyle;rounded=0;orthogonalLoop=1;jettySize=auto;html=1;entryX=0.812;entryY=0.966;entryDx=0;entryDy=0;entryPerimeter=0;exitX=0.817;exitY=-0.008;exitDx=0;exitDy=0;exitPerimeter=0;endArrow=block;endFill=0;" edge="1" parent="1" source="-4JqRAIje_STTefDtWn_-259" target="-4JqRAIje_STTefDtWn_-227">
          <mxGeometry relative="1" as="geometry">
            <Array as="points">
              <mxPoint x="351" y="400" />
              <mxPoint x="460" y="400" />
            </Array>
          </mxGeometry>
        </mxCell>
        <mxCell id="-4JqRAIje_STTefDtWn_-267" value="&amp;lt;&amp;lt;enumeration&amp;gt;&amp;gt;&lt;div&gt;ChillerState&lt;/div&gt;" style="swimlane;fontStyle=0;childLayout=stackLayout;horizontal=1;startSize=26;fillColor=none;horizontalStack=0;resizeParent=1;resizeParentMax=0;resizeLast=0;collapsible=1;marginBottom=0;whiteSpace=wrap;html=1;" vertex="1" parent="1">
          <mxGeometry x="510.29" y="506" width="130" height="90" as="geometry" />
        </mxCell>
        <mxCell id="-4JqRAIje_STTefDtWn_-268" value="OFF&lt;div&gt;HEAT&lt;/div&gt;&lt;div&gt;COOL&lt;/div&gt;" style="text;strokeColor=none;fillColor=none;align=left;verticalAlign=top;spacingLeft=4;spacingRight=4;overflow=hidden;rotatable=0;points=[[0,0.5],[1,0.5]];portConstraint=eastwest;whiteSpace=wrap;html=1;" vertex="1" parent="-4JqRAIje_STTefDtWn_-267">
          <mxGeometry y="26" width="130" height="64" as="geometry" />
        </mxCell>
        <mxCell id="-4JqRAIje_STTefDtWn_-269" style="edgeStyle=orthogonalEdgeStyle;rounded=0;orthogonalLoop=1;jettySize=auto;html=1;entryX=0.005;entryY=0.175;entryDx=0;entryDy=0;entryPerimeter=0;" edge="1" parent="1" source="-4JqRAIje_STTefDtWn_-260" target="-4JqRAIje_STTefDtWn_-267">
          <mxGeometry relative="1" as="geometry">
            <Array as="points">
              <mxPoint x="440" y="522" />
              <mxPoint x="440" y="522" />
            </Array>
          </mxGeometry>
        </mxCell>
        <mxCell id="-4JqRAIje_STTefDtWn_-270" value="1" style="edgeLabel;html=1;align=center;verticalAlign=middle;resizable=0;points=[];" vertex="1" connectable="0" parent="-4JqRAIje_STTefDtWn_-269">
          <mxGeometry x="0.8242" relative="1" as="geometry">
            <mxPoint x="-20" y="-12" as="offset" />
          </mxGeometry>
        </mxCell>
        <mxCell id="-4JqRAIje_STTefDtWn_-271" value="myState" style="edgeLabel;html=1;align=center;verticalAlign=middle;resizable=0;points=[];" vertex="1" connectable="0" parent="-4JqRAIje_STTefDtWn_-269">
          <mxGeometry x="0.7902" y="-1" relative="1" as="geometry">
            <mxPoint x="-17" y="7" as="offset" />
          </mxGeometry>
        </mxCell>
        <mxCell id="-4JqRAIje_STTefDtWn_-272" style="edgeStyle=orthogonalEdgeStyle;rounded=0;orthogonalLoop=1;jettySize=auto;html=1;entryX=0.014;entryY=0.107;entryDx=0;entryDy=0;entryPerimeter=0;" edge="1" parent="1" source="-4JqRAIje_STTefDtWn_-256" target="-4JqRAIje_STTefDtWn_-259">
          <mxGeometry relative="1" as="geometry" />
        </mxCell>
        <mxCell id="-4JqRAIje_STTefDtWn_-273" value="1" style="edgeLabel;html=1;align=center;verticalAlign=middle;resizable=0;points=[];" vertex="1" connectable="0" parent="-4JqRAIje_STTefDtWn_-272">
          <mxGeometry x="0.8206" y="1" relative="1" as="geometry">
            <mxPoint y="-7" as="offset" />
          </mxGeometry>
        </mxCell>
        <mxCell id="-4JqRAIje_STTefDtWn_-274" value="myChiller" style="edgeLabel;html=1;align=center;verticalAlign=middle;resizable=0;points=[];rotation=-90;" vertex="1" connectable="0" parent="-4JqRAIje_STTefDtWn_-272">
          <mxGeometry x="0.6931" y="-3" relative="1" as="geometry">
            <mxPoint x="7" y="35" as="offset" />
          </mxGeometry>
        </mxCell>
        <mxCell id="-4JqRAIje_STTefDtWn_-275" value="SmarlA&amp;amp;V" style="swimlane;fontStyle=1;align=center;verticalAlign=top;childLayout=stackLayout;horizontal=1;startSize=26;horizontalStack=0;resizeParent=1;resizeParentMax=0;resizeLast=0;collapsible=1;marginBottom=0;whiteSpace=wrap;html=1;" vertex="1" parent="1">
          <mxGeometry x="-30" y="770" width="200" height="190" as="geometry" />
        </mxCell>
        <mxCell id="-4JqRAIje_STTefDtWn_-276" value="*************" style="text;strokeColor=none;fillColor=none;align=left;verticalAlign=top;spacingLeft=4;spacingRight=4;overflow=hidden;rotatable=0;points=[[0,0.5],[1,0.5]];portConstraint=eastwest;whiteSpace=wrap;html=1;" vertex="1" parent="-4JqRAIje_STTefDtWn_-275">
          <mxGeometry y="26" width="200" height="26" as="geometry" />
        </mxCell>
        <mxCell id="-4JqRAIje_STTefDtWn_-277" value="" style="line;strokeWidth=1;fillColor=none;align=left;verticalAlign=middle;spacingTop=-1;spacingLeft=3;spacingRight=3;rotatable=0;labelPosition=right;points=[];portConstraint=eastwest;strokeColor=inherit;" vertex="1" parent="-4JqRAIje_STTefDtWn_-275">
          <mxGeometry y="52" width="200" height="8" as="geometry" />
        </mxCell>
        <mxCell id="-4JqRAIje_STTefDtWn_-278" value="&lt;div&gt;&lt;span style=&quot;background-color: transparent; color: light-dark(rgb(0, 0, 0), rgb(255, 255, 255));&quot;&gt;+&lt;/span&gt;&lt;span style=&quot;background-color: transparent; color: light-dark(rgb(0, 0, 0), rgb(255, 255, 255));&quot;&gt;&amp;nbsp;SetState(u: User,t: TV, s: Bool): void&lt;/span&gt;&lt;/div&gt;&lt;div&gt;+ SetChanal(u: User,&amp;nbsp;&lt;span style=&quot;background-color: transparent; color: light-dark(rgb(0, 0, 0), rgb(255, 255, 255));&quot;&gt;t: TV,&lt;/span&gt;&lt;span style=&quot;background-color: transparent; color: light-dark(rgb(0, 0, 0), rgb(255, 255, 255));&quot;&gt;&amp;nbsp;c: int): void&lt;/span&gt;&lt;/div&gt;&lt;div&gt;+ SetVolume(u: User,&amp;nbsp;&lt;span style=&quot;background-color: transparent; color: light-dark(rgb(0, 0, 0), rgb(255, 255, 255));&quot;&gt;t: TV,&lt;/span&gt;&lt;span style=&quot;background-color: transparent; color: light-dark(rgb(0, 0, 0), rgb(255, 255, 255));&quot;&gt;&amp;nbsp;v: int): void&lt;/span&gt;&lt;/div&gt;&lt;div&gt;&lt;span style=&quot;background-color: transparent; color: light-dark(rgb(0, 0, 0), rgb(255, 255, 255));&quot;&gt;+ CreateWidget(): void&lt;/span&gt;&lt;/div&gt;&lt;div&gt;+ WidgetChanged(w: Widget): void&lt;br&gt;&lt;/div&gt;" style="text;strokeColor=none;fillColor=none;align=left;verticalAlign=top;spacingLeft=4;spacingRight=4;overflow=hidden;rotatable=0;points=[[0,0.5],[1,0.5]];portConstraint=eastwest;whiteSpace=wrap;html=1;" vertex="1" parent="-4JqRAIje_STTefDtWn_-275">
          <mxGeometry y="60" width="200" height="130" as="geometry" />
        </mxCell>
        <mxCell id="-4JqRAIje_STTefDtWn_-279" style="edgeStyle=orthogonalEdgeStyle;rounded=0;orthogonalLoop=1;jettySize=auto;html=1;exitX=0.5;exitY=0;exitDx=0;exitDy=0;entryX=0.5;entryY=0;entryDx=0;entryDy=0;endArrow=block;endFill=0;" edge="1" parent="1" source="-4JqRAIje_STTefDtWn_-280" target="-4JqRAIje_STTefDtWn_-224">
          <mxGeometry relative="1" as="geometry">
            <Array as="points">
              <mxPoint x="320" y="740" />
              <mxPoint x="990" y="740" />
              <mxPoint x="990" y="-40" />
              <mxPoint x="410" y="-40" />
            </Array>
          </mxGeometry>
        </mxCell>
        <mxCell id="-4JqRAIje_STTefDtWn_-280" value="TV" style="swimlane;fontStyle=1;align=center;verticalAlign=top;childLayout=stackLayout;horizontal=1;startSize=26;horizontalStack=0;resizeParent=1;resizeParentMax=0;resizeLast=0;collapsible=1;marginBottom=0;whiteSpace=wrap;html=1;" vertex="1" parent="1">
          <mxGeometry x="240" y="752" width="160" height="150" as="geometry" />
        </mxCell>
        <mxCell id="-4JqRAIje_STTefDtWn_-281" value="- state: bool&lt;div&gt;- chanal: int&lt;/div&gt;&lt;div&gt;- volume: int&lt;/div&gt;" style="text;strokeColor=none;fillColor=none;align=left;verticalAlign=top;spacingLeft=4;spacingRight=4;overflow=hidden;rotatable=0;points=[[0,0.5],[1,0.5]];portConstraint=eastwest;whiteSpace=wrap;html=1;" vertex="1" parent="-4JqRAIje_STTefDtWn_-280">
          <mxGeometry y="26" width="160" height="64" as="geometry" />
        </mxCell>
        <mxCell id="-4JqRAIje_STTefDtWn_-282" value="" style="line;strokeWidth=1;fillColor=none;align=left;verticalAlign=middle;spacingTop=-1;spacingLeft=3;spacingRight=3;rotatable=0;labelPosition=right;points=[];portConstraint=eastwest;strokeColor=inherit;" vertex="1" parent="-4JqRAIje_STTefDtWn_-280">
          <mxGeometry y="90" width="160" height="8" as="geometry" />
        </mxCell>
        <mxCell id="-4JqRAIje_STTefDtWn_-283" value="+ setState(s: Bool): void&lt;div&gt;+ setChanal(c: int): void&lt;/div&gt;&lt;div&gt;+ setVolume(v: int): void&lt;/div&gt;" style="text;strokeColor=none;fillColor=none;align=left;verticalAlign=top;spacingLeft=4;spacingRight=4;overflow=hidden;rotatable=0;points=[[0,0.5],[1,0.5]];portConstraint=eastwest;whiteSpace=wrap;html=1;" vertex="1" parent="-4JqRAIje_STTefDtWn_-280">
          <mxGeometry y="98" width="160" height="52" as="geometry" />
        </mxCell>
        <mxCell id="-4JqRAIje_STTefDtWn_-284" style="edgeStyle=orthogonalEdgeStyle;rounded=0;orthogonalLoop=1;jettySize=auto;html=1;entryX=-0.001;entryY=0.826;entryDx=0;entryDy=0;entryPerimeter=0;exitX=0.001;exitY=0.09;exitDx=0;exitDy=0;exitPerimeter=0;endArrow=block;endFill=0;jumpStyle=arc;" edge="1" parent="1" source="-4JqRAIje_STTefDtWn_-275" target="-4JqRAIje_STTefDtWn_-213">
          <mxGeometry relative="1" as="geometry">
            <Array as="points">
              <mxPoint x="-60" y="785" />
              <mxPoint x="-60" y="146" />
            </Array>
          </mxGeometry>
        </mxCell>
        <mxCell id="-4JqRAIje_STTefDtWn_-285" style="edgeStyle=orthogonalEdgeStyle;rounded=0;orthogonalLoop=1;jettySize=auto;html=1;entryX=0;entryY=0.5;entryDx=0;entryDy=0;" edge="1" parent="1" source="-4JqRAIje_STTefDtWn_-276" target="-4JqRAIje_STTefDtWn_-281">
          <mxGeometry relative="1" as="geometry" />
        </mxCell>
        <mxCell id="-4JqRAIje_STTefDtWn_-286" value="1" style="edgeLabel;html=1;align=center;verticalAlign=middle;resizable=0;points=[];" vertex="1" connectable="0" parent="-4JqRAIje_STTefDtWn_-285">
          <mxGeometry x="0.5956" y="3" relative="1" as="geometry">
            <mxPoint x="-4" y="-7" as="offset" />
          </mxGeometry>
        </mxCell>
        <mxCell id="-4JqRAIje_STTefDtWn_-287" value="myTV" style="edgeLabel;html=1;align=center;verticalAlign=middle;resizable=0;points=[];" vertex="1" connectable="0" parent="-4JqRAIje_STTefDtWn_-285">
          <mxGeometry x="0.3224" y="-2" relative="1" as="geometry">
            <mxPoint x="8" y="9" as="offset" />
          </mxGeometry>
        </mxCell>
        <mxCell id="-4JqRAIje_STTefDtWn_-288" value="SmartElectronicSystem" style="swimlane;fontStyle=1;align=center;verticalAlign=top;childLayout=stackLayout;horizontal=1;startSize=26;horizontalStack=0;resizeParent=1;resizeParentMax=0;resizeLast=0;collapsible=1;marginBottom=0;whiteSpace=wrap;html=1;" vertex="1" parent="1">
          <mxGeometry x="-30" y="1020" width="210" height="260" as="geometry" />
        </mxCell>
        <mxCell id="-4JqRAIje_STTefDtWn_-289" value="*****************" style="text;strokeColor=none;fillColor=none;align=left;verticalAlign=top;spacingLeft=4;spacingRight=4;overflow=hidden;rotatable=0;points=[[0,0.5],[1,0.5]];portConstraint=eastwest;whiteSpace=wrap;html=1;" vertex="1" parent="-4JqRAIje_STTefDtWn_-288">
          <mxGeometry y="26" width="210" height="26" as="geometry" />
        </mxCell>
        <mxCell id="-4JqRAIje_STTefDtWn_-290" value="" style="line;strokeWidth=1;fillColor=none;align=left;verticalAlign=middle;spacingTop=-1;spacingLeft=3;spacingRight=3;rotatable=0;labelPosition=right;points=[];portConstraint=eastwest;strokeColor=inherit;" vertex="1" parent="-4JqRAIje_STTefDtWn_-288">
          <mxGeometry y="52" width="210" height="8" as="geometry" />
        </mxCell>
        <mxCell id="-4JqRAIje_STTefDtWn_-291" value="&lt;div&gt;&lt;span style=&quot;background-color: transparent; color: light-dark(rgb(0, 0, 0), rgb(255, 255, 255));&quot;&gt;+ ChooseED(u: User, ed: ElectronicDevice): void&lt;/span&gt;&lt;/div&gt;&lt;div&gt;&lt;span style=&quot;background-color: transparent; color: light-dark(rgb(0, 0, 0), rgb(255, 255, 255));&quot;&gt;+ SetEState(u: User,&lt;/span&gt;&lt;span style=&quot;background-color: transparent; color: light-dark(rgb(0, 0, 0), rgb(255, 255, 255));&quot;&gt;&amp;nbsp;&lt;/span&gt;&lt;span style=&quot;background-color: transparent; color: light-dark(rgb(0, 0, 0), rgb(255, 255, 255));&quot;&gt;ed: ElectronicDevice,&lt;/span&gt;&lt;span style=&quot;background-color: transparent; color: light-dark(rgb(0, 0, 0), rgb(255, 255, 255));&quot;&gt;&amp;nbsp;s: bool): void&lt;/span&gt;&lt;/div&gt;&lt;div&gt;+ CheckPeekTime(): bool&lt;/div&gt;&lt;div&gt;+ ChooseLight(u: User, l: Light): void&lt;/div&gt;&lt;div&gt;&lt;span style=&quot;background-color: transparent; color: light-dark(rgb(0, 0, 0), rgb(255, 255, 255));&quot;&gt;+ SetLState(u: User, l: Light, s: bool): void&lt;/span&gt;&lt;/div&gt;&lt;div&gt;+SetLVolume(u:user,&lt;span style=&quot;background-color: transparent; color: light-dark(rgb(0, 0, 0), rgb(255, 255, 255));&quot;&gt;l: Light,&lt;/span&gt;&lt;span style=&quot;background-color: transparent; color: light-dark(rgb(0, 0, 0), rgb(255, 255, 255));&quot;&gt;&amp;nbsp;v: float): void&lt;/span&gt;&lt;/div&gt;&lt;div&gt;&lt;span style=&quot;background-color: transparent; color: light-dark(rgb(0, 0, 0), rgb(255, 255, 255));&quot;&gt;+ CreateWidget(): void&lt;/span&gt;&lt;/div&gt;&lt;div&gt;+ WidgetChanged(w: Widget): void&lt;/div&gt;" style="text;strokeColor=none;fillColor=none;align=left;verticalAlign=top;spacingLeft=4;spacingRight=4;overflow=hidden;rotatable=0;points=[[0,0.5],[1,0.5]];portConstraint=eastwest;whiteSpace=wrap;html=1;" vertex="1" parent="-4JqRAIje_STTefDtWn_-288">
          <mxGeometry y="60" width="210" height="200" as="geometry" />
        </mxCell>
        <mxCell id="-4JqRAIje_STTefDtWn_-292" style="edgeStyle=orthogonalEdgeStyle;rounded=0;orthogonalLoop=1;jettySize=auto;html=1;entryX=0;entryY=0.5;entryDx=0;entryDy=0;exitX=-0.005;exitY=0.1;exitDx=0;exitDy=0;exitPerimeter=0;endArrow=block;endFill=0;jumpStyle=arc;" edge="1" parent="1" source="-4JqRAIje_STTefDtWn_-288" target="-4JqRAIje_STTefDtWn_-211">
          <mxGeometry relative="1" as="geometry">
            <Array as="points">
              <mxPoint x="-100" y="1046" />
              <mxPoint x="-100" y="59" />
            </Array>
          </mxGeometry>
        </mxCell>
        <mxCell id="-4JqRAIje_STTefDtWn_-293" value="SmartSecurity" style="swimlane;fontStyle=1;align=center;verticalAlign=top;childLayout=stackLayout;horizontal=1;startSize=26;horizontalStack=0;resizeParent=1;resizeParentMax=0;resizeLast=0;collapsible=1;marginBottom=0;whiteSpace=wrap;html=1;" vertex="1" parent="1">
          <mxGeometry x="-10" y="1300" width="180" height="120" as="geometry" />
        </mxCell>
        <mxCell id="-4JqRAIje_STTefDtWn_-294" value="*************" style="text;strokeColor=none;fillColor=none;align=left;verticalAlign=top;spacingLeft=4;spacingRight=4;overflow=hidden;rotatable=0;points=[[0,0.5],[1,0.5]];portConstraint=eastwest;whiteSpace=wrap;html=1;" vertex="1" parent="-4JqRAIje_STTefDtWn_-293">
          <mxGeometry y="26" width="180" height="26" as="geometry" />
        </mxCell>
        <mxCell id="-4JqRAIje_STTefDtWn_-295" value="" style="line;strokeWidth=1;fillColor=none;align=left;verticalAlign=middle;spacingTop=-1;spacingLeft=3;spacingRight=3;rotatable=0;labelPosition=right;points=[];portConstraint=eastwest;strokeColor=inherit;" vertex="1" parent="-4JqRAIje_STTefDtWn_-293">
          <mxGeometry y="52" width="180" height="8" as="geometry" />
        </mxCell>
        <mxCell id="-4JqRAIje_STTefDtWn_-296" value="&lt;div&gt;&lt;span style=&quot;background-color: transparent; color: light-dark(rgb(0, 0, 0), rgb(255, 255, 255));&quot;&gt;+ CreateWidget(): void&lt;/span&gt;&lt;/div&gt;&lt;div&gt;+ WidgetChanged(w: Widget): void&lt;/div&gt;" style="text;strokeColor=none;fillColor=none;align=left;verticalAlign=top;spacingLeft=4;spacingRight=4;overflow=hidden;rotatable=0;points=[[0,0.5],[1,0.5]];portConstraint=eastwest;whiteSpace=wrap;html=1;" vertex="1" parent="-4JqRAIje_STTefDtWn_-293">
          <mxGeometry y="60" width="180" height="60" as="geometry" />
        </mxCell>
        <mxCell id="-4JqRAIje_STTefDtWn_-297" style="edgeStyle=orthogonalEdgeStyle;rounded=0;orthogonalLoop=1;jettySize=auto;html=1;entryX=-0.004;entryY=0.089;entryDx=0;entryDy=0;entryPerimeter=0;endArrow=block;endFill=0;exitX=0.012;exitY=0.09;exitDx=0;exitDy=0;exitPerimeter=0;jumpStyle=arc;" edge="1" parent="1" source="-4JqRAIje_STTefDtWn_-293" target="-4JqRAIje_STTefDtWn_-210">
          <mxGeometry relative="1" as="geometry">
            <Array as="points">
              <mxPoint x="-110" y="1311" />
              <mxPoint x="-110" y="33" />
            </Array>
          </mxGeometry>
        </mxCell>
        <mxCell id="-4JqRAIje_STTefDtWn_-298" value="ElectronicDevice" style="swimlane;fontStyle=1;align=center;verticalAlign=top;childLayout=stackLayout;horizontal=1;startSize=26;horizontalStack=0;resizeParent=1;resizeParentMax=0;resizeLast=0;collapsible=1;marginBottom=0;whiteSpace=wrap;html=1;" vertex="1" parent="1">
          <mxGeometry x="250" y="1011" width="160" height="104" as="geometry" />
        </mxCell>
        <mxCell id="-4JqRAIje_STTefDtWn_-299" value="- state: bool" style="text;strokeColor=none;fillColor=none;align=left;verticalAlign=top;spacingLeft=4;spacingRight=4;overflow=hidden;rotatable=0;points=[[0,0.5],[1,0.5]];portConstraint=eastwest;whiteSpace=wrap;html=1;" vertex="1" parent="-4JqRAIje_STTefDtWn_-298">
          <mxGeometry y="26" width="160" height="44" as="geometry" />
        </mxCell>
        <mxCell id="-4JqRAIje_STTefDtWn_-300" value="" style="line;strokeWidth=1;fillColor=none;align=left;verticalAlign=middle;spacingTop=-1;spacingLeft=3;spacingRight=3;rotatable=0;labelPosition=right;points=[];portConstraint=eastwest;strokeColor=inherit;" vertex="1" parent="-4JqRAIje_STTefDtWn_-298">
          <mxGeometry y="70" width="160" height="8" as="geometry" />
        </mxCell>
        <mxCell id="-4JqRAIje_STTefDtWn_-301" value="+ setState(s: bool): void" style="text;strokeColor=none;fillColor=none;align=left;verticalAlign=top;spacingLeft=4;spacingRight=4;overflow=hidden;rotatable=0;points=[[0,0.5],[1,0.5]];portConstraint=eastwest;whiteSpace=wrap;html=1;" vertex="1" parent="-4JqRAIje_STTefDtWn_-298">
          <mxGeometry y="78" width="160" height="26" as="geometry" />
        </mxCell>
        <mxCell id="-4JqRAIje_STTefDtWn_-302" value="Light" style="swimlane;fontStyle=1;align=center;verticalAlign=top;childLayout=stackLayout;horizontal=1;startSize=26;horizontalStack=0;resizeParent=1;resizeParentMax=0;resizeLast=0;collapsible=1;marginBottom=0;whiteSpace=wrap;html=1;" vertex="1" parent="1">
          <mxGeometry x="490" y="1020" width="160" height="140" as="geometry" />
        </mxCell>
        <mxCell id="-4JqRAIje_STTefDtWn_-303" value="- state: bool&lt;div&gt;- volume: float&lt;/div&gt;" style="text;strokeColor=none;fillColor=none;align=left;verticalAlign=top;spacingLeft=4;spacingRight=4;overflow=hidden;rotatable=0;points=[[0,0.5],[1,0.5]];portConstraint=eastwest;whiteSpace=wrap;html=1;" vertex="1" parent="-4JqRAIje_STTefDtWn_-302">
          <mxGeometry y="26" width="160" height="54" as="geometry" />
        </mxCell>
        <mxCell id="-4JqRAIje_STTefDtWn_-304" value="" style="line;strokeWidth=1;fillColor=none;align=left;verticalAlign=middle;spacingTop=-1;spacingLeft=3;spacingRight=3;rotatable=0;labelPosition=right;points=[];portConstraint=eastwest;strokeColor=inherit;" vertex="1" parent="-4JqRAIje_STTefDtWn_-302">
          <mxGeometry y="80" width="160" height="8" as="geometry" />
        </mxCell>
        <mxCell id="-4JqRAIje_STTefDtWn_-305" value="+ setState(s; bool): void&lt;div&gt;- setVolume(v: float): void&lt;/div&gt;" style="text;strokeColor=none;fillColor=none;align=left;verticalAlign=top;spacingLeft=4;spacingRight=4;overflow=hidden;rotatable=0;points=[[0,0.5],[1,0.5]];portConstraint=eastwest;whiteSpace=wrap;html=1;" vertex="1" parent="-4JqRAIje_STTefDtWn_-302">
          <mxGeometry y="88" width="160" height="52" as="geometry" />
        </mxCell>
        <mxCell id="-4JqRAIje_STTefDtWn_-306" style="edgeStyle=orthogonalEdgeStyle;rounded=0;orthogonalLoop=1;jettySize=auto;html=1;entryX=0;entryY=0.5;entryDx=0;entryDy=0;" edge="1" parent="1" source="-4JqRAIje_STTefDtWn_-289" target="-4JqRAIje_STTefDtWn_-299">
          <mxGeometry relative="1" as="geometry" />
        </mxCell>
        <mxCell id="-4JqRAIje_STTefDtWn_-307" value="1" style="edgeLabel;html=1;align=center;verticalAlign=middle;resizable=0;points=[];" vertex="1" connectable="0" parent="-4JqRAIje_STTefDtWn_-306">
          <mxGeometry x="0.4844" relative="1" as="geometry">
            <mxPoint y="-13" as="offset" />
          </mxGeometry>
        </mxCell>
        <mxCell id="-4JqRAIje_STTefDtWn_-308" value="myED" style="edgeLabel;html=1;align=center;verticalAlign=middle;resizable=0;points=[];" vertex="1" connectable="0" parent="-4JqRAIje_STTefDtWn_-306">
          <mxGeometry x="0.5733" y="2" relative="1" as="geometry">
            <mxPoint y="13" as="offset" />
          </mxGeometry>
        </mxCell>
        <mxCell id="-4JqRAIje_STTefDtWn_-309" style="edgeStyle=orthogonalEdgeStyle;rounded=0;orthogonalLoop=1;jettySize=auto;html=1;entryX=0;entryY=0.25;entryDx=0;entryDy=0;" edge="1" parent="1" source="-4JqRAIje_STTefDtWn_-291" target="-4JqRAIje_STTefDtWn_-302">
          <mxGeometry relative="1" as="geometry">
            <Array as="points">
              <mxPoint x="430" y="1140" />
              <mxPoint x="430" y="1055" />
            </Array>
          </mxGeometry>
        </mxCell>
        <mxCell id="-4JqRAIje_STTefDtWn_-310" value="1" style="edgeLabel;html=1;align=center;verticalAlign=middle;resizable=0;points=[];" vertex="1" connectable="0" parent="-4JqRAIje_STTefDtWn_-309">
          <mxGeometry x="0.8987" y="-4" relative="1" as="geometry">
            <mxPoint y="-15" as="offset" />
          </mxGeometry>
        </mxCell>
        <mxCell id="-4JqRAIje_STTefDtWn_-311" value="myLight" style="edgeLabel;html=1;align=center;verticalAlign=middle;resizable=0;points=[];" vertex="1" connectable="0" parent="-4JqRAIje_STTefDtWn_-309">
          <mxGeometry x="0.8987" y="-4" relative="1" as="geometry">
            <mxPoint x="-15" y="4" as="offset" />
          </mxGeometry>
        </mxCell>
        <mxCell id="-4JqRAIje_STTefDtWn_-312" style="edgeStyle=orthogonalEdgeStyle;rounded=0;orthogonalLoop=1;jettySize=auto;html=1;entryX=0.75;entryY=0;entryDx=0;entryDy=0;" edge="1" parent="1" source="-4JqRAIje_STTefDtWn_-313" target="-4JqRAIje_STTefDtWn_-302">
          <mxGeometry relative="1" as="geometry">
            <Array as="points">
              <mxPoint x="925" y="990" />
              <mxPoint x="610" y="990" />
            </Array>
          </mxGeometry>
        </mxCell>
        <mxCell id="-4JqRAIje_STTefDtWn_-313" value="CheckPeopleSensor" style="shape=umlActor;verticalLabelPosition=bottom;verticalAlign=top;html=1;" vertex="1" parent="1">
          <mxGeometry x="910" y="-30" width="30" height="60" as="geometry" />
        </mxCell>
        <mxCell id="-4JqRAIje_STTefDtWn_-314" style="edgeStyle=orthogonalEdgeStyle;rounded=0;orthogonalLoop=1;jettySize=auto;html=1;entryX=1.015;entryY=0.179;entryDx=0;entryDy=0;entryPerimeter=0;" edge="1" parent="1" source="-4JqRAIje_STTefDtWn_-313" target="-4JqRAIje_STTefDtWn_-236">
          <mxGeometry relative="1" as="geometry" />
        </mxCell>
        <mxCell id="-4JqRAIje_STTefDtWn_-315" style="edgeStyle=orthogonalEdgeStyle;rounded=0;orthogonalLoop=1;jettySize=auto;html=1;entryX=0.81;entryY=0;entryDx=0;entryDy=0;entryPerimeter=0;" edge="1" parent="1" source="-4JqRAIje_STTefDtWn_-313" target="-4JqRAIje_STTefDtWn_-288">
          <mxGeometry relative="1" as="geometry">
            <Array as="points">
              <mxPoint x="925" y="990" />
              <mxPoint x="140" y="990" />
            </Array>
          </mxGeometry>
        </mxCell>
        <mxCell id="-4JqRAIje_STTefDtWn_-316" style="edgeStyle=orthogonalEdgeStyle;rounded=0;orthogonalLoop=1;jettySize=auto;html=1;exitX=0.5;exitY=0.5;exitDx=0;exitDy=0;exitPerimeter=0;entryX=0.5;entryY=0;entryDx=0;entryDy=0;jumpStyle=arc;" edge="1" parent="1" source="-4JqRAIje_STTefDtWn_-317" target="-4JqRAIje_STTefDtWn_-288">
          <mxGeometry relative="1" as="geometry" />
        </mxCell>
        <mxCell id="-4JqRAIje_STTefDtWn_-317" value="DataBase" style="shape=umlActor;verticalLabelPosition=bottom;verticalAlign=top;html=1;" vertex="1" parent="1">
          <mxGeometry x="-560" y="970" width="30" height="60" as="geometry" />
        </mxCell>
        <mxCell id="-4JqRAIje_STTefDtWn_-318" value="SecurityHandler" style="swimlane;fontStyle=1;align=center;verticalAlign=top;childLayout=stackLayout;horizontal=1;startSize=26;horizontalStack=0;resizeParent=1;resizeParentMax=0;resizeLast=0;collapsible=1;marginBottom=0;whiteSpace=wrap;html=1;" vertex="1" parent="1">
          <mxGeometry x="240" y="1300" width="230" height="200" as="geometry" />
        </mxCell>
        <mxCell id="-4JqRAIje_STTefDtWn_-319" value="***********" style="text;strokeColor=none;fillColor=none;align=left;verticalAlign=top;spacingLeft=4;spacingRight=4;overflow=hidden;rotatable=0;points=[[0,0.5],[1,0.5]];portConstraint=eastwest;whiteSpace=wrap;html=1;" vertex="1" parent="-4JqRAIje_STTefDtWn_-318">
          <mxGeometry y="26" width="230" height="26" as="geometry" />
        </mxCell>
        <mxCell id="-4JqRAIje_STTefDtWn_-320" value="" style="line;strokeWidth=1;fillColor=none;align=left;verticalAlign=middle;spacingTop=-1;spacingLeft=3;spacingRight=3;rotatable=0;labelPosition=right;points=[];portConstraint=eastwest;strokeColor=inherit;" vertex="1" parent="-4JqRAIje_STTefDtWn_-318">
          <mxGeometry y="52" width="230" height="8" as="geometry" />
        </mxCell>
        <mxCell id="-4JqRAIje_STTefDtWn_-321" value="+ SetAState(ss:&amp;nbsp;&lt;span style=&quot;text-align: center;&quot;&gt;SmartSecurity,a: Alarm, s: bool): void&lt;/span&gt;&lt;div&gt;+ SetSState(ss:&amp;nbsp;&lt;span style=&quot;text-align: center;&quot;&gt;SmartSecurity, s: Splasher, s: bool): void&lt;/span&gt;&lt;/div&gt;&lt;div&gt;+ SetEDState(ss:&amp;nbsp;&lt;span style=&quot;text-align: center;&quot;&gt;SmartSecurity, e: ElectronicDevice, s: bool): void&lt;/span&gt;&lt;span style=&quot;text-align: center;&quot;&gt;&lt;/span&gt;&lt;/div&gt;" style="text;strokeColor=none;fillColor=none;align=left;verticalAlign=top;spacingLeft=4;spacingRight=4;overflow=hidden;rotatable=0;points=[[0,0.5],[1,0.5]];portConstraint=eastwest;whiteSpace=wrap;html=1;" vertex="1" parent="-4JqRAIje_STTefDtWn_-318">
          <mxGeometry y="60" width="230" height="140" as="geometry" />
        </mxCell>
        <mxCell id="-4JqRAIje_STTefDtWn_-322" style="edgeStyle=orthogonalEdgeStyle;rounded=0;orthogonalLoop=1;jettySize=auto;html=1;entryX=1;entryY=0.5;entryDx=0;entryDy=0;" edge="1" parent="1" source="-4JqRAIje_STTefDtWn_-319" target="-4JqRAIje_STTefDtWn_-294">
          <mxGeometry relative="1" as="geometry" />
        </mxCell>
        <mxCell id="-4JqRAIje_STTefDtWn_-323" value="1" style="edgeLabel;html=1;align=center;verticalAlign=middle;resizable=0;points=[];" vertex="1" connectable="0" parent="-4JqRAIje_STTefDtWn_-322">
          <mxGeometry x="0.7" y="4" relative="1" as="geometry">
            <mxPoint y="-17" as="offset" />
          </mxGeometry>
        </mxCell>
        <mxCell id="-4JqRAIje_STTefDtWn_-324" value="mySecurity" style="edgeLabel;html=1;align=center;verticalAlign=middle;resizable=0;points=[];" vertex="1" connectable="0" parent="-4JqRAIje_STTefDtWn_-322">
          <mxGeometry x="0.6091" y="-1" relative="1" as="geometry">
            <mxPoint x="8" y="12" as="offset" />
          </mxGeometry>
        </mxCell>
        <mxCell id="-4JqRAIje_STTefDtWn_-325" value="// if the request tme is in the peek time, return true.&lt;div&gt;// if the request tme is&#39;nt in the peek time, return false.&lt;/div&gt;" style="html=1;whiteSpace=wrap;align=left;" vertex="1" parent="1">
          <mxGeometry x="-430" y="1180" width="230" height="90" as="geometry" />
        </mxCell>
        <mxCell id="-4JqRAIje_STTefDtWn_-326" value="&lt;div&gt;&lt;span style=&quot;background-color: transparent; color: light-dark(rgb(0, 0, 0), rgb(255, 255, 255));&quot;&gt;if CheckPeekTime() == false&lt;/span&gt;&lt;/div&gt;&lt;div&gt;&lt;span style=&quot;white-space: pre;&quot;&gt;&#x9;&lt;/span&gt;&lt;span style=&quot;background-color: transparent; color: light-dark(rgb(0, 0, 0), rgb(255, 255, 255));&quot;&gt;ed -&amp;gt; setState(s)&lt;/span&gt;&lt;br&gt;&lt;/div&gt;&lt;div&gt;if CheckPeekTime() == true&lt;/div&gt;&lt;div&gt;&lt;span style=&quot;white-space: pre;&quot;&gt;&#x9;&lt;/span&gt;print(&quot;It&#39;s in the peek time!&quot;)&lt;br&gt;&lt;/div&gt;&lt;div&gt;&lt;span style=&quot;white-space: pre;&quot;&gt;&#x9;&lt;/span&gt;&lt;span style=&quot;background-color: transparent; color: light-dark(rgb(0, 0, 0), rgb(255, 255, 255));&quot;&gt;ed -&amp;gt; setState(s)&lt;/span&gt;&lt;br&gt;&lt;/div&gt;" style="html=1;whiteSpace=wrap;align=left;" vertex="1" parent="1">
          <mxGeometry x="-450" y="1080" width="250" height="80" as="geometry" />
        </mxCell>
        <mxCell id="-4JqRAIje_STTefDtWn_-327" style="edgeStyle=orthogonalEdgeStyle;rounded=0;orthogonalLoop=1;jettySize=auto;html=1;entryX=0.999;entryY=0.337;entryDx=0;entryDy=0;entryPerimeter=0;endArrow=none;startFill=0;exitX=0.006;exitY=0.219;exitDx=0;exitDy=0;exitPerimeter=0;endFill=0;startArrow=oval;" edge="1" parent="1" source="-4JqRAIje_STTefDtWn_-291" target="-4JqRAIje_STTefDtWn_-326">
          <mxGeometry relative="1" as="geometry">
            <Array as="points">
              <mxPoint x="-120" y="1124" />
              <mxPoint x="-120" y="1107" />
            </Array>
          </mxGeometry>
        </mxCell>
        <mxCell id="-4JqRAIje_STTefDtWn_-328" style="edgeStyle=orthogonalEdgeStyle;rounded=0;orthogonalLoop=1;jettySize=auto;html=1;entryX=0.999;entryY=0.355;entryDx=0;entryDy=0;entryPerimeter=0;endArrow=none;startFill=0;startArrow=oval;exitX=-0.007;exitY=0.355;exitDx=0;exitDy=0;exitPerimeter=0;" edge="1" parent="1" source="-4JqRAIje_STTefDtWn_-291" target="-4JqRAIje_STTefDtWn_-325">
          <mxGeometry relative="1" as="geometry">
            <Array as="points">
              <mxPoint x="-120" y="1151" />
              <mxPoint x="-120" y="1212" />
            </Array>
          </mxGeometry>
        </mxCell>
        <mxCell id="-4JqRAIje_STTefDtWn_-329" value="SmokeSensor" style="shape=umlActor;verticalLabelPosition=bottom;verticalAlign=top;html=1;" vertex="1" parent="1">
          <mxGeometry x="750" y="1180" width="30" height="60" as="geometry" />
        </mxCell>
        <mxCell id="-4JqRAIje_STTefDtWn_-330" value="Alarm" style="swimlane;fontStyle=1;align=center;verticalAlign=top;childLayout=stackLayout;horizontal=1;startSize=26;horizontalStack=0;resizeParent=1;resizeParentMax=0;resizeLast=0;collapsible=1;marginBottom=0;whiteSpace=wrap;html=1;" vertex="1" parent="1">
          <mxGeometry x="540" y="1308" width="160" height="86" as="geometry" />
        </mxCell>
        <mxCell id="-4JqRAIje_STTefDtWn_-331" value="- state: bool" style="text;strokeColor=none;fillColor=none;align=left;verticalAlign=top;spacingLeft=4;spacingRight=4;overflow=hidden;rotatable=0;points=[[0,0.5],[1,0.5]];portConstraint=eastwest;whiteSpace=wrap;html=1;" vertex="1" parent="-4JqRAIje_STTefDtWn_-330">
          <mxGeometry y="26" width="160" height="26" as="geometry" />
        </mxCell>
        <mxCell id="-4JqRAIje_STTefDtWn_-332" value="" style="line;strokeWidth=1;fillColor=none;align=left;verticalAlign=middle;spacingTop=-1;spacingLeft=3;spacingRight=3;rotatable=0;labelPosition=right;points=[];portConstraint=eastwest;strokeColor=inherit;" vertex="1" parent="-4JqRAIje_STTefDtWn_-330">
          <mxGeometry y="52" width="160" height="8" as="geometry" />
        </mxCell>
        <mxCell id="-4JqRAIje_STTefDtWn_-333" value="+ setState(s: bool):void" style="text;strokeColor=none;fillColor=none;align=left;verticalAlign=top;spacingLeft=4;spacingRight=4;overflow=hidden;rotatable=0;points=[[0,0.5],[1,0.5]];portConstraint=eastwest;whiteSpace=wrap;html=1;" vertex="1" parent="-4JqRAIje_STTefDtWn_-330">
          <mxGeometry y="60" width="160" height="26" as="geometry" />
        </mxCell>
        <mxCell id="-4JqRAIje_STTefDtWn_-334" style="edgeStyle=orthogonalEdgeStyle;rounded=0;orthogonalLoop=1;jettySize=auto;html=1;exitX=0.5;exitY=0.5;exitDx=0;exitDy=0;exitPerimeter=0;entryX=1;entryY=0.5;entryDx=0;entryDy=0;" edge="1" parent="1" source="-4JqRAIje_STTefDtWn_-329" target="-4JqRAIje_STTefDtWn_-331">
          <mxGeometry relative="1" as="geometry">
            <Array as="points">
              <mxPoint x="765" y="1347" />
            </Array>
          </mxGeometry>
        </mxCell>
        <mxCell id="-4JqRAIje_STTefDtWn_-335" style="edgeStyle=orthogonalEdgeStyle;rounded=0;orthogonalLoop=1;jettySize=auto;html=1;entryX=0.921;entryY=1.056;entryDx=0;entryDy=0;entryPerimeter=0;exitX=0.875;exitY=-0.009;exitDx=0;exitDy=0;exitPerimeter=0;endArrow=block;endFill=0;" edge="1" parent="1" source="-4JqRAIje_STTefDtWn_-330" target="-4JqRAIje_STTefDtWn_-227">
          <mxGeometry relative="1" as="geometry">
            <Array as="points">
              <mxPoint x="680" y="380" />
              <mxPoint x="477" y="380" />
              <mxPoint x="477" y="210" />
            </Array>
          </mxGeometry>
        </mxCell>
        <mxCell id="-4JqRAIje_STTefDtWn_-336" style="edgeStyle=orthogonalEdgeStyle;rounded=0;orthogonalLoop=1;jettySize=auto;html=1;entryX=0;entryY=0.5;entryDx=0;entryDy=0;exitX=1;exitY=0.5;exitDx=0;exitDy=0;" edge="1" parent="1" source="-4JqRAIje_STTefDtWn_-296" target="-4JqRAIje_STTefDtWn_-331">
          <mxGeometry relative="1" as="geometry">
            <Array as="points">
              <mxPoint x="210" y="1390" />
              <mxPoint x="210" y="1540" />
              <mxPoint x="480" y="1540" />
              <mxPoint x="480" y="1346" />
            </Array>
          </mxGeometry>
        </mxCell>
        <mxCell id="-4JqRAIje_STTefDtWn_-337" value="1" style="edgeLabel;html=1;align=center;verticalAlign=middle;resizable=0;points=[];" vertex="1" connectable="0" parent="-4JqRAIje_STTefDtWn_-336">
          <mxGeometry x="0.934" y="3" relative="1" as="geometry">
            <mxPoint x="-3" y="-10" as="offset" />
          </mxGeometry>
        </mxCell>
        <mxCell id="-4JqRAIje_STTefDtWn_-338" value="myAlarm" style="edgeLabel;html=1;align=center;verticalAlign=middle;resizable=0;points=[];" vertex="1" connectable="0" parent="-4JqRAIje_STTefDtWn_-336">
          <mxGeometry x="0.8994" y="-2" relative="1" as="geometry">
            <mxPoint y="9" as="offset" />
          </mxGeometry>
        </mxCell>
        <mxCell id="-4JqRAIje_STTefDtWn_-339" style="edgeStyle=orthogonalEdgeStyle;rounded=0;orthogonalLoop=1;jettySize=auto;html=1;exitX=0.5;exitY=0.5;exitDx=0;exitDy=0;exitPerimeter=0;entryX=0.5;entryY=0;entryDx=0;entryDy=0;" edge="1" parent="1" source="-4JqRAIje_STTefDtWn_-329" target="-4JqRAIje_STTefDtWn_-293">
          <mxGeometry relative="1" as="geometry">
            <Array as="points">
              <mxPoint x="560" y="1210" />
              <mxPoint x="560" y="1290" />
              <mxPoint x="80" y="1290" />
            </Array>
          </mxGeometry>
        </mxCell>
        <mxCell id="-4JqRAIje_STTefDtWn_-340" style="edgeStyle=orthogonalEdgeStyle;rounded=0;orthogonalLoop=1;jettySize=auto;html=1;entryX=0.013;entryY=0.145;entryDx=0;entryDy=0;entryPerimeter=0;exitX=0.995;exitY=0.104;exitDx=0;exitDy=0;exitPerimeter=0;dashed=1;" edge="1" parent="1" source="-4JqRAIje_STTefDtWn_-318" target="-4JqRAIje_STTefDtWn_-330">
          <mxGeometry relative="1" as="geometry">
            <Array as="points" />
          </mxGeometry>
        </mxCell>
        <mxCell id="-4JqRAIje_STTefDtWn_-341" style="edgeStyle=orthogonalEdgeStyle;rounded=0;orthogonalLoop=1;jettySize=auto;html=1;exitX=0.5;exitY=0;exitDx=0;exitDy=0;entryX=0.588;entryY=1.017;entryDx=0;entryDy=0;entryPerimeter=0;dashed=1;" edge="1" parent="1" source="-4JqRAIje_STTefDtWn_-318" target="-4JqRAIje_STTefDtWn_-301">
          <mxGeometry relative="1" as="geometry">
            <Array as="points">
              <mxPoint x="344" y="1300" />
            </Array>
          </mxGeometry>
        </mxCell>
        <mxCell id="-4JqRAIje_STTefDtWn_-342" value="User" style="swimlane;fontStyle=1;align=center;verticalAlign=top;childLayout=stackLayout;horizontal=1;startSize=26;horizontalStack=0;resizeParent=1;resizeParentMax=0;resizeLast=0;collapsible=1;marginBottom=0;whiteSpace=wrap;html=1;" vertex="1" parent="1">
          <mxGeometry x="-395" y="370" width="160" height="86" as="geometry" />
        </mxCell>
        <mxCell id="-4JqRAIje_STTefDtWn_-343" value="- id: String" style="text;strokeColor=none;fillColor=none;align=left;verticalAlign=top;spacingLeft=4;spacingRight=4;overflow=hidden;rotatable=0;points=[[0,0.5],[1,0.5]];portConstraint=eastwest;whiteSpace=wrap;html=1;" vertex="1" parent="-4JqRAIje_STTefDtWn_-342">
          <mxGeometry y="26" width="160" height="26" as="geometry" />
        </mxCell>
        <mxCell id="-4JqRAIje_STTefDtWn_-344" value="" style="line;strokeWidth=1;fillColor=none;align=left;verticalAlign=middle;spacingTop=-1;spacingLeft=3;spacingRight=3;rotatable=0;labelPosition=right;points=[];portConstraint=eastwest;strokeColor=inherit;" vertex="1" parent="-4JqRAIje_STTefDtWn_-342">
          <mxGeometry y="52" width="160" height="8" as="geometry" />
        </mxCell>
        <mxCell id="-4JqRAIje_STTefDtWn_-345" value="*******" style="text;strokeColor=none;fillColor=none;align=left;verticalAlign=top;spacingLeft=4;spacingRight=4;overflow=hidden;rotatable=0;points=[[0,0.5],[1,0.5]];portConstraint=eastwest;whiteSpace=wrap;html=1;" vertex="1" parent="-4JqRAIje_STTefDtWn_-342">
          <mxGeometry y="60" width="160" height="26" as="geometry" />
        </mxCell>
        <mxCell id="-4JqRAIje_STTefDtWn_-346" style="rounded=0;orthogonalLoop=1;jettySize=auto;html=1;exitX=1;exitY=0.5;exitDx=0;exitDy=0;entryX=0.01;entryY=1.027;entryDx=0;entryDy=0;entryPerimeter=0;jumpStyle=arc;" edge="1" parent="1" source="-4JqRAIje_STTefDtWn_-343" target="-4JqRAIje_STTefDtWn_-213">
          <mxGeometry relative="1" as="geometry" />
        </mxCell>
        <mxCell id="-4JqRAIje_STTefDtWn_-347" style="rounded=0;orthogonalLoop=1;jettySize=auto;html=1;exitX=1;exitY=0.5;exitDx=0;exitDy=0;entryX=0;entryY=0;entryDx=0;entryDy=0;jumpStyle=arc;" edge="1" parent="1" source="-4JqRAIje_STTefDtWn_-343" target="-4JqRAIje_STTefDtWn_-293">
          <mxGeometry relative="1" as="geometry">
            <mxPoint x="-225" y="419" as="sourcePoint" />
            <mxPoint x="-8" y="172" as="targetPoint" />
          </mxGeometry>
        </mxCell>
        <mxCell id="-4JqRAIje_STTefDtWn_-348" style="rounded=0;orthogonalLoop=1;jettySize=auto;html=1;exitX=1;exitY=0.5;exitDx=0;exitDy=0;entryX=0;entryY=0;entryDx=0;entryDy=0;jumpStyle=arc;" edge="1" parent="1" source="-4JqRAIje_STTefDtWn_-343" target="-4JqRAIje_STTefDtWn_-214">
          <mxGeometry relative="1" as="geometry">
            <mxPoint x="-215" y="429" as="sourcePoint" />
            <mxPoint x="2" y="182" as="targetPoint" />
          </mxGeometry>
        </mxCell>
        <mxCell id="-4JqRAIje_STTefDtWn_-349" style="rounded=0;orthogonalLoop=1;jettySize=auto;html=1;exitX=1;exitY=0.5;exitDx=0;exitDy=0;entryX=0;entryY=0;entryDx=0;entryDy=0;jumpStyle=arc;" edge="1" parent="1" source="-4JqRAIje_STTefDtWn_-343" target="-4JqRAIje_STTefDtWn_-253">
          <mxGeometry relative="1" as="geometry">
            <mxPoint x="-205" y="439" as="sourcePoint" />
            <mxPoint x="12" y="192" as="targetPoint" />
          </mxGeometry>
        </mxCell>
        <mxCell id="-4JqRAIje_STTefDtWn_-350" style="rounded=0;orthogonalLoop=1;jettySize=auto;html=1;exitX=1;exitY=0.5;exitDx=0;exitDy=0;entryX=0;entryY=0;entryDx=0;entryDy=0;jumpStyle=arc;" edge="1" parent="1" source="-4JqRAIje_STTefDtWn_-343" target="-4JqRAIje_STTefDtWn_-275">
          <mxGeometry relative="1" as="geometry">
            <mxPoint x="-195" y="449" as="sourcePoint" />
            <mxPoint x="22" y="202" as="targetPoint" />
          </mxGeometry>
        </mxCell>
        <mxCell id="-4JqRAIje_STTefDtWn_-351" style="rounded=0;orthogonalLoop=1;jettySize=auto;html=1;exitX=1;exitY=0.5;exitDx=0;exitDy=0;entryX=0;entryY=0;entryDx=0;entryDy=0;jumpStyle=arc;" edge="1" parent="1" source="-4JqRAIje_STTefDtWn_-343" target="-4JqRAIje_STTefDtWn_-288">
          <mxGeometry relative="1" as="geometry">
            <mxPoint x="-185" y="459" as="sourcePoint" />
            <mxPoint x="32" y="212" as="targetPoint" />
          </mxGeometry>
        </mxCell>
      </root>
    </mxGraphModel>
  </diagram>
</mxfile>
